<svg xmlns="http://www.w3.org/2000/svg" xmlns:xlink="http://www.w3.org/1999/xlink" width="1200" height="738.14"><rect width="1200" height="738.14" rx="0" ry="0" class="a"/><svg height="738.14" viewBox="0 0 120 73.814" width="1200" xmlns="http://www.w3.org/2000/svg" xmlns:xlink="http://www.w3.org/1999/xlink"><style>@keyframes v{0%{transform:translateX(0)}.1%{transform:translateX(-120px)}7.6%{transform:translateX(-1080px)}7.7%{transform:translateX(-1440px)}7.8%{transform:translateX(-1800px)}12.2%{transform:translateX(-2040px)}16.4%{transform:translateX(-2160px)}19.3%{transform:translateX(-2760px)}21.3%{transform:translateX(-3360px)}21.6%{transform:translateX(-4080px)}to{transform:translateX(-4200px)}}.a{fill:#282d35}.c,.d,.e,.f,.g{fill:#71bef2;white-space:pre}.d,.e,.f,.g{fill:#d290e4}.e,.f,.g{fill:#6c6c6c}.f,.g{fill:#a8cc8c}.g{fill:#d290e4}.g,.h,.i{font-weight:700}.h{fill:#b9bfca;white-space:pre}.i{fill:#66c2cd}.i,.j,.k,.l,.x{white-space:pre}.j{fill:#71bef2;font-weight:700}.k,.l,.x{fill:#b9bfca}.l,.x{fill:#b9c0cb}.x{fill:#e88388;font-weight:700}</style><g font-family="Monaco,Consolas,Menlo,'Bitstream Vera Sans Mono','Powerline Symbols',monospace" font-size="1.67"><defs><symbol id="1"><text y="1.67" class="c">~/projects/schedule</text><text x="20.04" y="1.67" class="d">❯</text></symbol><symbol id="2"><text y="1.67" class="c">~/projects/schedule</text><text x="20.04" y="1.67" class="e">main</text><text x="25.05" y="1.67" class="d">❯</text></symbol><symbol id="3"><text y="1.67" class="c">~/projects/schedule</text><text x="20.04" y="1.67" class="e">main</text><text x="25.05" y="1.67" class="d">❯</text><text x="27.054" y="1.67" class="f">onefetch</text></symbol><symbol id="4"><text y="1.67" class="d">❯</text><text x="2.004" y="1.67" class="f">onefetch</text></symbol><symbol id="5"><text x="12.024" y="1.67" class="g">################</text><text x="43.086" y="1.67" class="g">plump_albert</text><text x="56.112" y="1.67" class="h">~</text><text x="58.116" y="1.67" class="g">git</text><text x="62.124" y="1.67" class="g">version</text><text x="70.14" y="1.67" class="g">2.35.1</text></symbol><symbol id="6"><text x="6.012" y="1.67" class="g">##########</text><text x="16.032" y="1.67" class="h">/</text><text x="17.034" y="1.67" class="i">HH</text><text x="19.038" y="1.67" class="j">|</text><text x="20.04" y="1.67" class="g">##############</text><text x="43.086" y="1.67" class="k">---------------------------------</text></symbol><symbol id="7"><text x="3.006" y="1.67" class="g">#############</text><text x="16.032" y="1.67" class="h">|</text><text x="17.034" y="1.67" class="i">HH</text><text x="19.038" y="1.67" class="j">|</text><text x="20.04" y="1.67" class="g">#################</text><text x="43.086" y="1.67" class="g">Project</text><text x="50.1" y="1.67" class="h">:</text><text x="52.104" y="1.67" class="k">schedule-docker</text></symbol><symbol id="8"><text x="1.002" y="1.67" class="g">#####</text><text x="6.012" y="1.67" class="h">/</text><text x="7.014" y="1.67" class="i">PPPPPPPP</text><text x="15.03" y="1.67" class="j">\</text><text x="16.032" y="1.67" class="h">|</text><text x="17.034" y="1.67" class="i">HHHHHHHH</text><text x="25.05" y="1.67" class="j">\</text><text x="26.052" y="1.67" class="h">/</text><text x="27.054" y="1.67" class="i">PPPPPPPP</text><text x="35.07" y="1.67" class="j">\</text><text x="36.072" y="1.67" class="g">###</text><text x="43.086" y="1.67" class="g">HEAD</text><text x="47.094" y="1.67" class="h">:</text><text x="49.098" y="1.67" class="k">65b5c05</text><text x="57.114" y="1.67" class="k">(main,</text><text x="64.128" y="1.67" class="k">origin/main)</text></symbol><symbol id="9"><text y="1.67" class="g">######</text><text x="6.012" y="1.67" class="h">|</text><text x="7.014" y="1.67" class="i">PP</text><text x="9.018" y="1.67" class="j">|</text><text x="10.02" y="1.67" class="g">##</text><text x="12.024" y="1.67" class="h">|</text><text x="13.026" y="1.67" class="i">PP</text><text x="15.03" y="1.67" class="j">|</text><text x="16.032" y="1.67" class="h">|</text><text x="17.034" y="1.67" class="i">HH</text><text x="19.038" y="1.67" class="j">|</text><text x="20.04" y="1.67" class="g">##</text><text x="22.044" y="1.67" class="h">|</text><text x="23.046" y="1.67" class="i">HH</text><text x="25.05" y="1.67" class="j">|</text><text x="26.052" y="1.67" class="h">|</text><text x="27.054" y="1.67" class="i">PP</text><text x="29.058" y="1.67" class="j">|</text><text x="30.06" y="1.67" class="g">##</text><text x="32.064" y="1.67" class="h">|</text><text x="33.066" y="1.67" class="i">PP</text><text x="35.07" y="1.67" class="j">|</text><text x="36.072" y="1.67" class="g">####</text><text x="43.086" y="1.67" class="g">Created</text><text x="50.1" y="1.67" class="h">:</text><text x="52.104" y="1.67" class="k">25</text><text x="55.11" y="1.67" class="k">minutes</text><text x="63.126" y="1.67" class="k">ago</text></symbol><symbol id="10"><text y="1.67" class="g">######</text><text x="6.012" y="1.67" class="h">|</text><text x="7.014" y="1.67" class="i">PP</text><text x="9.018" y="1.67" class="j">|</text><text x="10.02" y="1.67" class="g">##</text><text x="12.024" y="1.67" class="h">/</text><text x="13.026" y="1.67" class="i">PP</text><text x="15.03" y="1.67" class="j">|</text><text x="16.032" y="1.67" class="h">|</text><text x="17.034" y="1.67" class="i">HH</text><text x="19.038" y="1.67" class="j">|</text><text x="20.04" y="1.67" class="g">##</text><text x="22.044" y="1.67" class="h">|</text><text x="23.046" y="1.67" class="i">HH</text><text x="25.05" y="1.67" class="j">|</text><text x="26.052" y="1.67" class="h">|</text><text x="27.054" y="1.67" class="i">PP</text><text x="29.058" y="1.67" class="j">|</text><text x="30.06" y="1.67" class="g">##</text><text x="32.064" y="1.67" class="h">/</text><text x="33.066" y="1.67" class="i">PP</text><text x="35.07" y="1.67" class="j">|</text><text x="36.072" y="1.67" class="g">####</text><text x="43.086" y="1.67" class="g">Languages</text><text x="52.104" y="1.67" class="h">:</text><text x="54.108" y="1.67" class="k">PHP</text><text x="58.116" y="1.67" class="k">(98.0</text><text x="64.128" y="1.67" class="k">%)</text><text x="67.134" y="1.67" class="k">Dockerfile</text><text x="78.156" y="1.67" class="k">(1.6</text><text x="83.166" y="1.67" class="k">%)</text></symbol><symbol id="11"><text x="1.002" y="1.67" class="g">#####</text><text x="6.012" y="1.67" class="h">|</text><text x="7.014" y="1.67" class="i">PPPPPPPP</text><text x="15.03" y="1.67" class="j">/</text><text x="16.032" y="1.67" class="h">|</text><text x="17.034" y="1.67" class="i">HH</text><text x="19.038" y="1.67" class="j">|</text><text x="20.04" y="1.67" class="g">##</text><text x="22.044" y="1.67" class="h">|</text><text x="23.046" y="1.67" class="i">HH</text><text x="25.05" y="1.67" class="j">|</text><text x="26.052" y="1.67" class="h">|</text><text x="27.054" y="1.67" class="i">PPPPPPPP</text><text x="35.07" y="1.67" class="j">/</text><text x="36.072" y="1.67" class="g">###</text><text x="54.108" y="1.67" class="k">JavaScript</text><text x="65.13" y="1.67" class="k">(0.4</text><text x="70.14" y="1.67" class="k">%)</text><text x="73.146" y="1.67" class="k">CSS</text><text x="77.154" y="1.67" class="k">(0.1</text><text x="82.164" y="1.67" class="k">%)</text></symbol><symbol id="12"><text x="3.006" y="1.67" class="g">###</text><text x="6.012" y="1.67" class="h">|</text><text x="7.014" y="1.67" class="i">PP</text><text x="9.018" y="1.67" class="j">|</text><text x="10.02" y="1.67" class="g">################</text><text x="26.052" y="1.67" class="h">|</text><text x="27.054" y="1.67" class="i">PP</text><text x="29.058" y="1.67" class="j">|</text><text x="30.06" y="1.67" class="g">#######</text><text x="43.086" y="1.67" class="g">Author</text><text x="49.098" y="1.67" class="h">:</text><text x="51.102" y="1.67" class="k">100%</text><text x="56.112" y="1.67" class="k">plump_albert</text><text x="69.138" y="1.67" class="k">8</text></symbol><symbol id="13"><text x="6.012" y="1.67" class="h">|</text><text x="7.014" y="1.67" class="i">PP</text><text x="9.018" y="1.67" class="j">/</text><text x="10.02" y="1.67" class="g">################</text><text x="26.052" y="1.67" class="h">|</text><text x="27.054" y="1.67" class="i">PP</text><text x="29.058" y="1.67" class="j">/</text><text x="30.06" y="1.67" class="g">####</text><text x="43.086" y="1.67" class="g">Last</text><text x="48.096" y="1.67" class="g">change</text><text x="54.108" y="1.67" class="h">:</text><text x="56.112" y="1.67" class="k">6</text><text x="58.116" y="1.67" class="k">minutes</text><text x="66.132" y="1.67" class="k">ago</text></symbol><symbol id="14"><text x="12.024" y="1.67" class="g">################</text><text x="43.086" y="1.67" class="g">Repo</text><text x="47.094" y="1.67" class="h">:</text><text x="49.098" y="1.67" class="k">git@github.com:PlumpAlbert/schedule-docker.git</text></symbol><symbol id="15"><text x="43.086" y="1.67" class="g">Commits</text><text x="50.1" y="1.67" class="h">:</text><text x="52.104" y="1.67" class="k">8</text></symbol><symbol id="16"><text x="43.086" y="1.67" class="g">Lines</text><text x="49.098" y="1.67" class="g">of</text><text x="52.104" y="1.67" class="g">code</text><text x="56.112" y="1.67" class="h">:</text><text x="58.116" y="1.67" class="k">1779</text></symbol><symbol id="17"><text x="43.086" y="1.67" class="g">Size</text><text x="47.094" y="1.67" class="h">:</text><text x="49.098" y="1.67" class="k">4.10</text><text x="54.108" y="1.67" class="k">KiB</text><text x="58.116" y="1.67" class="k">(9</text><text x="61.122" y="1.67" class="k">files)</text></symbol><symbol id="18">0<text x="43.086" y="1.67" class="l"></text><path fill="#e88388" d="M46.092 0h3v2.171h-3z"/><text x="46.092" y="1.67" class="l"></text><path fill="#a8cc8c" d="M49.098 0h3v2.171h-3z"/><text x="49.098" y="1.67" class="l"></text><path fill="#dbab79" d="M52.104 0h3v2.171h-3z"/><text x="52.104" y="1.67" class="l"></text><path fill="#71bef2" d="M55.11 0h3v2.171h-3z"/><text x="55.11" y="1.67" class="l"></text><path fill="#d290e4" d="M58.116 0h3v2.171h-3z"/><text x="58.116" y="1.67" class="l"></text><path fill="#66c2cd" d="M61.122 0h3v2.171h-3z"/><text x="61.122" y="1.67" class="l"></text><path fill="#b9bfca" d="M64.128 0h3v2.171h-3z"/><text x="64.128" y="1.67" class="l"></text></symbol><symbol id="a"><path fill="transparent" d="M0 0h120v34H0z"/></symbol><symbol id="b"><path fill="#6f7683" d="M0 0h1.102v2.171H0z"/></symbol></defs><path class="a" d="M0 0h120v73.814H0z"/><g style="animation-duration:6.80304s;animation-iteration-count:infinite;animation-name:v;animation-timing-function:steps(1,end)"><svg width="4320"><svg><use xlink:href="#a"/><use xlink:href="#b" x="-.004"/></svg><svg x="120"><use xlink:href="#a"/><use xlink:href="#b" x="21.996"/><use xlink:href="#1"/></svg><svg x="240"><use xlink:href="#a"/><use xlink:href="#1"/></svg><svg x="360"><use xlink:href="#a"/></svg><svg x="480"><use xlink:href="#a"/></svg><svg x="600"><use xlink:href="#a"/></svg><svg x="720"><use xlink:href="#a"/><use xlink:href="#1"/></svg><svg x="840"><use xlink:href="#a"/><use xlink:href="#1"/></svg><svg x="960"><use xlink:href="#a"/><use xlink:href="#b" x="21.996"/><use xlink:href="#1"/></svg><svg x="1080"><use xlink:href="#a"/><use xlink:href="#b" x="21.996"/><use xlink:href="#1"/></svg><svg x="1200"><use xlink:href="#a"/><use xlink:href="#1"/></svg><svg x="1320"><use xlink:href="#a"/><use xlink:href="#2"/></svg><svg x="1440"><use xlink:href="#a"/><use xlink:href="#b" x="26.996"/><use xlink:href="#2"/></svg><svg x="1560"><use xlink:href="#a"/><use xlink:href="#2"/></svg><svg x="1680"><use xlink:href="#a"/><use xlink:href="#2"/></svg><svg x="1800"><use xlink:href="#a"/><use xlink:href="#b" x="26.996"/><use xlink:href="#2"/></svg><svg x="1920"><use xlink:href="#a"/><use xlink:href="#b" x="27.996"/><text y="1.67" class="c">~/projects/schedule</text><text x="20.04" y="1.67" class="e">main</text><text x="25.05" y="1.67" class="d">❯</text><text x="27.054" y="1.67" class="x">o</text></svg><svg x="2040"><use xlink:href="#a"/><use xlink:href="#b" x="27.996"/><text y="1.67" class="c">~/projects/schedule</text><text x="20.04" y="1.67" class="e">main</text><text x="25.05" y="1.67" class="d">❯</text><text x="27.054" y="1.67" class="x">o</text><text x="28.056" y="1.67" style="white-space:pre" fill="#6f7783">nefetch</text></svg><svg x="2160"><use xlink:href="#a"/><use xlink:href="#b" x="34.996"/><use xlink:href="#3"/></svg><svg x="2280"><use xlink:href="#a"/><use xlink:href="#b" x="34.996"/><use xlink:href="#3"/></svg><svg x="2400"><use xlink:href="#a"/><use xlink:href="#3"/></svg><svg x="2520"><use xlink:href="#a"/><use xlink:href="#b" x="9.996"/><use xlink:href="#4"/></svg><svg x="2640"><use xlink:href="#a"/><use xlink:href="#b" x="-.004" y="2.146"/><use xlink:href="#4"/></svg><svg x="2760"><use xlink:href="#a"/><use xlink:href="#b" x="-.004" y="2.146"/><use xlink:href="#4"/></svg><svg x="2880"><use xlink:href="#a"/><use xlink:href="#b" x="41.996" y="10.83"/><use xlink:href="#4"/><use xlink:href="#5" y="2.171"/><use xlink:href="#6" y="4.342"/><use xlink:href="#7" y="6.513"/><use xlink:href="#8" y="8.684"/><text y="12.525" class="g">######</text><text x="6.012" y="12.525" class="h">|</text><text x="7.014" y="12.525" class="i">PP</text><text x="9.018" y="12.525" class="j">|</text><text x="10.02" y="12.525" class="g">##</text><text x="12.024" y="12.525" class="h">|</text><text x="13.026" y="12.525" class="i">PP</text><text x="15.03" y="12.525" class="j">|</text><text x="16.032" y="12.525" class="h">|</text><text x="17.034" y="12.525" class="i">HH</text><text x="19.038" y="12.525" class="j">|</text><text x="20.04" y="12.525" class="g">##</text><text x="22.044" y="12.525" class="h">|</text><text x="23.046" y="12.525" class="i">HH</text><text x="25.05" y="12.525" class="j">|</text><text x="26.052" y="12.525" class="h">|</text><text x="27.054" y="12.525" class="i">PP</text><text x="29.058" y="12.525" class="j">|</text><text x="30.06" y="12.525" class="g">##</text><text x="32.064" y="12.525" class="h">|</text><text x="33.066" y="12.525" class="i">PP</text><text x="35.07" y="12.525" class="j">|</text><text x="36.072" y="12.525" class="g">####</text></svg><svg x="3000"><use xlink:href="#a"/><use xlink:href="#b" x="6.996" y="19.514"/><use xlink:href="#4"/><use xlink:href="#5" y="2.171"/><use xlink:href="#6" y="4.342"/><use xlink:href="#7" y="6.513"/><use xlink:href="#8" y="8.684"/><use xlink:href="#9" y="10.855"/><use xlink:href="#10" y="13.026"/><use xlink:href="#11" y="15.197"/><use xlink:href="#12" y="17.368"/><text x="6.012" y="21.209" class="h">|</text></svg><svg x="3120"><use xlink:href="#a"/><use xlink:href="#b" x="-.004" y="36.882"/><use xlink:href="#4"/><use xlink:href="#5" y="2.171"/><use xlink:href="#6" y="4.342"/><use xlink:href="#7" y="6.513"/><use xlink:href="#8" y="8.684"/><use xlink:href="#9" y="10.855"/><use xlink:href="#10" y="13.026"/><use xlink:href="#11" y="15.197"/><use xlink:href="#12" y="17.368"/><use xlink:href="#13" y="19.539"/><use xlink:href="#14" y="21.71"/><use xlink:href="#15" y="23.881"/><use xlink:href="#16" y="26.052"/><use xlink:href="#17" y="28.223"/><use xlink:href="#18" y="32.565"/></svg><svg x="3240"><use xlink:href="#a"/><use xlink:href="#b" x="-.004" y="36.882"/><use xlink:href="#4"/><use xlink:href="#5" y="2.171"/><use xlink:href="#6" y="4.342"/><use xlink:href="#7" y="6.513"/><use xlink:href="#8" y="8.684"/><use xlink:href="#9" y="10.855"/><use xlink:href="#10" y="13.026"/><use xlink:href="#11" y="15.197"/><use xlink:href="#12" y="17.368"/><use xlink:href="#13" y="19.539"/><use xlink:href="#14" y="21.71"/><use xlink:href="#15" y="23.881"/><use xlink:href="#16" y="26.052"/><use xlink:href="#17" y="28.223"/><use xlink:href="#18" y="32.565"/></svg><svg x="3360"><use xlink:href="#a"/><use xlink:href="#b" x="-.004" y="36.882"/><use xlink:href="#4"/><use xlink:href="#5" y="2.171"/><use xlink:href="#6" y="4.342"/><use xlink:href="#7" y="6.513"/><use xlink:href="#8" y="8.684"/><use xlink:href="#9" y="10.855"/><use xlink:href="#10" y="13.026"/><use xlink:href="#11" y="15.197"/><use xlink:href="#12" y="17.368"/><use xlink:href="#13" y="19.539"/><use xlink:href="#14" y="21.71"/><use xlink:href="#15" y="23.881"/><use xlink:href="#16" y="26.052"/><use xlink:href="#17" y="28.223"/><use xlink:href="#18" y="32.565"/></svg><svg x="3480"><use xlink:href="#a"/><use xlink:href="#b" x="26.996" y="36.882"/><use xlink:href="#4"/><use xlink:href="#5" y="2.171"/><use xlink:href="#6" y="4.342"/><use xlink:href="#7" y="6.513"/><use xlink:href="#8" y="8.684"/><use xlink:href="#9" y="10.855"/><use xlink:href="#10" y="13.026"/><use xlink:href="#11" y="15.197"/><use xlink:href="#12" y="17.368"/><use xlink:href="#13" y="19.539"/><use xlink:href="#14" y="21.71"/><use xlink:href="#15" y="23.881"/><use xlink:href="#16" y="26.052"/><use xlink:href="#17" y="28.223"/><use xlink:href="#18" y="32.565"/><use xlink:href="#2" y="36.907"/></svg><svg x="3600"><use xlink:href="#a"/><use xlink:href="#b" x="26.996" y="36.882"/><use xlink:href="#4"/><use xlink:href="#5" y="2.171"/><use xlink:href="#6" y="4.342"/><use xlink:href="#7" y="6.513"/><use xlink:href="#8" y="8.684"/><use xlink:href="#9" y="10.855"/><use xlink:href="#10" y="13.026"/><use xlink:href="#11" y="15.197"/><use xlink:href="#12" y="17.368"/><use xlink:href="#13" y="19.539"/><use xlink:href="#14" y="21.71"/><use xlink:href="#15" y="23.881"/><use xlink:href="#16" y="26.052"/><use xlink:href="#17" y="28.223"/><use xlink:href="#18" y="32.565"/><use xlink:href="#2" y="36.907"/></svg><svg x="3720"><use xlink:href="#a"/><use xlink:href="#b" x="26.996" y="36.882"/><use xlink:href="#4"/><use xlink:href="#5" y="2.171"/><use xlink:href="#6" y="4.342"/><use xlink:href="#7" y="6.513"/><use xlink:href="#8" y="8.684"/><use xlink:href="#9" y="10.855"/><use xlink:href="#10" y="13.026"/><use xlink:href="#11" y="15.197"/><use xlink:href="#12" y="17.368"/><use xlink:href="#13" y="19.539"/><use xlink:href="#14" y="21.71"/><use xlink:href="#15" y="23.881"/><use xlink:href="#16" y="26.052"/><use xlink:href="#17" y="28.223"/><use xlink:href="#18" y="32.565"/><use xlink:href="#2" y="36.907"/></svg><svg x="3840"><use xlink:href="#a"/><use xlink:href="#4"/><use xlink:href="#5" y="2.171"/><use xlink:href="#6" y="4.342"/><use xlink:href="#7" y="6.513"/><use xlink:href="#8" y="8.684"/><use xlink:href="#9" y="10.855"/><use xlink:href="#10" y="13.026"/><use xlink:href="#11" y="15.197"/><use xlink:href="#12" y="17.368"/><use xlink:href="#13" y="19.539"/><use xlink:href="#14" y="21.71"/><use xlink:href="#15" y="23.881"/><use xlink:href="#16" y="26.052"/><use xlink:href="#17" y="28.223"/><use xlink:href="#18" y="32.565"/><use xlink:href="#2" y="36.907"/></svg><svg x="3960"><use xlink:href="#a"/><use xlink:href="#4"/><use xlink:href="#5" y="2.171"/><use xlink:href="#6" y="4.342"/><use xlink:href="#7" y="6.513"/><use xlink:href="#8" y="8.684"/><use xlink:href="#9" y="10.855"/><use xlink:href="#10" y="13.026"/><use xlink:href="#11" y="15.197"/><use xlink:href="#12" y="17.368"/><use xlink:href="#13" y="19.539"/><use xlink:href="#14" y="21.71"/><use xlink:href="#15" y="23.881"/><use xlink:href="#16" y="26.052"/><use xlink:href="#17" y="28.223"/><use xlink:href="#18" y="32.565"/><use xlink:href="#2" y="36.907"/></svg><svg x="4080"><use xlink:href="#a"/><use xlink:href="#b" x="26.996" y="36.882"/><use xlink:href="#4"/><use xlink:href="#5" y="2.171"/><use xlink:href="#6" y="4.342"/><use xlink:href="#7" y="6.513"/><use xlink:href="#8" y="8.684"/><use xlink:href="#9" y="10.855"/><use xlink:href="#10" y="13.026"/><use xlink:href="#11" y="15.197"/><use xlink:href="#12" y="17.368"/><use xlink:href="#13" y="19.539"/><use xlink:href="#14" y="21.71"/><use xlink:href="#15" y="23.881"/><use xlink:href="#16" y="26.052"/><use xlink:href="#17" y="28.223"/><use xlink:href="#18" y="32.565"/><use xlink:href="#2" y="36.907"/></svg><svg x="4200"><use xlink:href="#a"/><use xlink:href="#b" x="-.004" y="39.053"/><use xlink:href="#4"/><use xlink:href="#5" y="2.171"/><use xlink:href="#6" y="4.342"/><use xlink:href="#7" y="6.513"/><use xlink:href="#8" y="8.684"/><use xlink:href="#9" y="10.855"/><use xlink:href="#10" y="13.026"/><use xlink:href="#11" y="15.197"/><use xlink:href="#12" y="17.368"/><use xlink:href="#13" y="19.539"/><use xlink:href="#14" y="21.71"/><use xlink:href="#15" y="23.881"/><use xlink:href="#16" y="26.052"/><use xlink:href="#17" y="28.223"/><use xlink:href="#18" y="32.565"/><use xlink:href="#2" y="36.907"/></svg></svg></g></g></svg></svg>